<?xml version="1.0" encoding="UTF-8"?>
<svg width="400px" height="118px" viewBox="0 0 1787 531" version="1.1" xmlns="http://www.w3.org/2000/svg">
    <title>Shade Logo</title>
    <g id="Logo-(Full)" stroke="none" stroke-width="1" fill="none" fill-rule="evenodd">
        <path d="M588.98,448.98 C606.47,448.98 622.2275,445.2675 636.2525,437.8425 C650.2775,430.4175 661.25,420.3525 669.17,407.6475 C677.09,394.9425 681.05,381.33 681.05,366.81 C681.05,351.96 677.3375,339.3375 669.9125,328.9425 C662.4875,318.5475 653.5775,310.05 643.1825,303.45 C632.7875,296.85 618.68,289.095 600.86,280.185 C584.69,272.265 572.0675,265.5825 562.9925,260.1375 C553.9175,254.6925 546.245,247.7625 539.975,239.3475 C533.705,230.9325 530.57,220.95 530.57,209.4 C530.57,198.18 533.705,187.2075 539.975,176.4825 C546.245,165.7575 555.32,157.0125 567.2,150.2475 C579.08,143.4825 592.94,140.1 608.78,140.1 C617.03,140.1 626.105,141.255 636.005,143.565 C645.905,145.875 655.475,149.34 664.715,153.96 L664.715,153.96 L668.18,153.465 L670.16,144.555 C649.7,134.985 629.57,130.2 609.77,130.2 C592.61,130.2 577.265,133.665 563.735,140.595 C550.205,147.525 539.645,156.93 532.055,168.81 C524.465,180.69 520.67,193.725 520.67,207.915 C520.67,222.105 524.2175,234.2325 531.3125,244.2975 C538.4075,254.3625 546.9875,262.6125 557.0525,269.0475 C567.1175,275.4825 580.895,282.99 598.385,291.57 C614.885,299.49 627.8375,306.42 637.2425,312.36 C646.6475,318.3 654.65,325.725 661.25,334.635 C667.85,343.545 671.15,354.27 671.15,366.81 C671.15,379.02 667.7675,390.6525 661.0025,401.7075 C654.2375,412.7625 644.5025,421.755 631.7975,428.685 C619.0925,435.615 604.655,439.08 588.485,439.08 C576.275,439.08 563.735,437.1 550.865,433.14 C537.995,429.18 526.61,423.24 516.71,415.32 L516.71,415.32 L514.235,416.31 L513.74,425.715 C523.97,433.305 535.85,439.08 549.38,443.04 C562.91,447 576.11,448.98 588.98,448.98 Z M771.635,447 L771.635,328.2 L935.975,328.2 L935.975,447 L945.875,447 L945.875,203.955 L935.975,203.955 L935.975,318.795 L771.635,318.795 L771.635,203.955 L761.735,203.955 L761.735,447 L771.635,447 Z M1027.55,447 L1033.49,429.675 L1059.725,367.305 L1182.485,367.305 L1206.74,429.675 L1211.69,447 L1223.075,447 L1129.025,203.955 L1118.63,203.955 L1016.165,447 L1027.55,447 Z M1178.525,357.9 L1063.685,357.9 L1122.59,218.805 L1124.075,218.805 L1178.525,357.9 Z M1375.535,448.98 C1413.155,448.98 1442.1125,437.595 1462.4075,414.825 C1482.7025,392.055 1492.85,359.715 1492.85,317.805 C1492.85,280.515 1483.115,251.8875 1463.645,231.9225 C1444.175,211.9575 1416.29,201.975 1379.99,201.975 L1379.99,201.975 L1297.325,203.955 L1297.325,447 C1309.535,447.66 1323.23,448.155 1338.41,448.485 C1353.59,448.815 1365.965,448.98 1375.535,448.98 Z M1376.03,439.575 C1367.78,439.575 1356.9725,439.41 1343.6075,439.08 C1330.2425,438.75 1318.115,438.255 1307.225,437.595 L1307.225,437.595 L1307.225,213.855 L1379.495,211.875 C1412.825,211.875 1438.4,221.0325 1456.22,239.3475 C1474.04,257.6625 1482.95,283.98 1482.95,318.3 C1482.95,357.24 1473.71,387.1875 1455.23,408.1425 C1436.75,429.0975 1410.35,439.575 1376.03,439.575 Z M1702.73,447 L1704.71,439.08 L1703.225,437.595 L1584.92,437.595 L1584.92,326.22 L1680.95,326.22 L1682.435,318.3 L1681.445,316.32 L1584.92,316.32 L1584.92,213.36 L1701.245,213.855 L1703.225,205.935 L1701.74,203.955 L1575.02,203.955 L1575.02,447 L1702.73,447 Z" id="Shade" fill="#FFFFFF" fill-rule="nonzero"></path>
        <g id="Bulb" transform="translate(43.000000, 16.000000)" fill="#D84315">
            <g>
                <path d="M204,433.544846 C188.91014,433.544846 176.63398,421.266604 176.63398,406.174868 C176.63398,404.667469 177.855933,403.445308 179.363077,403.445308 L201.270903,403.445308 L201.270903,395.426544 L168.348441,388.737758 C167.076682,388.479132 166.162435,387.360695 166.162435,386.062789 C166.162435,384.764884 167.076682,383.646447 168.348441,383.387821 L224.318809,372.016475 L168.348441,360.645811 C167.076682,360.387186 166.162435,359.268748 166.162435,357.970843 C166.162435,356.672937 167.076682,355.5545 168.348441,355.295874 L210.882783,346.65477 L206.483478,346.65477 C204.976334,346.65477 203.754381,345.43261 203.754381,343.925211 L203.754381,337.031025 L169.714355,337.031025 C168.207211,337.031025 166.985258,335.808865 166.985258,334.301465 L166.985258,304.960063 C166.985258,287.21383 159.349244,270.438638 145.484067,257.726396 C128.203425,241.881984 118.687064,220.441292 118.687064,197.353994 C118.687064,151.60589 156.957873,114.386978 204,114.386978 C251.042127,114.386978 289.313619,151.60589 289.313619,197.353994 C289.313619,220.44061 279.796575,241.881302 262.515933,257.726396 C248.650756,270.439321 241.015425,287.21383 241.015425,304.960063 L241.015425,320.796286 C241.015425,322.303686 239.793472,323.525846 238.286328,323.525846 L206.483478,323.525846 C204.976334,323.525846 203.754381,322.303686 203.754381,320.796286 L203.754381,285.675723 L166.829017,210.614877 C166.412829,209.768031 166.462635,208.767648 166.960696,207.967204 C167.459438,207.166079 168.335478,206.679535 169.277699,206.679535 L186.175585,206.679535 C187.158742,206.679535 188.066167,207.209069 188.550582,208.065469 L191.816629,213.837805 L201.760776,199.564937 C202.271117,198.832733 203.107585,198.396003 204,198.396003 C204.893097,198.396003 205.728883,198.832733 206.239224,199.565619 L216.182689,213.837805 L219.449418,208.065469 C219.933833,207.209069 220.841258,206.679535 221.824415,206.679535 L236.408027,206.679535 C237.307946,206.679535 238.151237,207.12377 238.659532,207.866893 C239.168508,208.610016 239.278355,209.555808 238.952227,210.395148 L215.72693,270.360164 C215.183157,271.765887 213.603692,272.465336 212.196161,271.919425 C210.790676,271.374877 210.092709,269.79378 210.637846,268.388057 L232.424227,212.138654 L223.416161,212.138654 L218.797846,220.30072 C218.336629,221.117541 217.48788,221.638887 216.551117,221.683242 C215.584334,221.724186 214.719211,221.286091 214.183625,220.517038 L204,205.900245 L193.815692,220.517038 C193.280107,221.286774 192.389057,221.730327 191.448883,221.683242 C190.51212,221.638887 189.663371,221.116858 189.201472,220.30072 L184.583839,212.138654 L173.661993,212.138654 L208.932161,283.835318 C209.116375,284.20995 209.212575,284.622796 209.212575,285.040418 L209.212575,318.066726 L235.557231,318.066726 L235.557231,304.960063 C235.557231,285.664805 243.820936,267.461371 258.826876,253.702343 C274.967438,238.904035 283.855425,218.892267 283.855425,197.353994 C283.855425,154.615912 248.032615,119.846097 204,119.846097 C159.967385,119.846097 124.145258,154.615912 124.145258,197.353994 C124.145258,218.892267 133.033244,238.904035 149.173124,253.702343 C164.179064,267.461371 172.443452,285.664805 172.443452,304.960063 L172.443452,331.571906 L206.483478,331.571906 C207.990622,331.571906 209.212575,332.794066 209.212575,334.301465 L209.212575,341.195651 L238.028428,341.195651 C239.430502,341.195651 240.603331,342.25745 240.743197,343.652255 C240.884428,345.04706 239.945619,346.321082 238.571518,346.600179 L182.601833,357.970843 L238.571518,369.341506 C239.843278,369.600132 240.757525,370.718569 240.757525,372.016475 C240.757525,373.314381 239.843278,374.432818 238.571518,374.691443 L182.601151,386.062789 L204.54309,390.52016 C205.814849,390.778786 206.729097,391.897223 206.729097,393.195129 L206.729097,406.174868 C206.729097,407.682267 205.507144,408.904428 204,408.904428 L182.261378,408.904428 C183.60887,419.703248 192.843452,428.085726 204,428.085726 C216.079666,428.085726 225.907144,418.256582 225.907144,406.174868 C225.907144,404.667469 227.129097,403.445308 228.636241,403.445308 C230.143385,403.445308 231.365338,404.667469 231.365338,406.174868 C231.365338,421.266604 219.089177,433.544846 204,433.544846" id="Fill-7"></path>
                <path d="M85.3552375,325.250245 C84.6565886,325.250245 83.9579398,324.983431 83.4250836,324.450484 C82.3593712,323.384591 82.3593712,321.656097 83.4250836,320.590887 L125.328321,278.680544 C126.394033,277.613969 128.122234,277.613969 129.187946,278.680544 C130.253659,279.745755 130.253659,281.474248 129.187946,282.540142 L87.284709,324.450484 C86.7518528,324.983431 86.053204,325.250245 85.3552375,325.250245" id="Fill-8"></path>
                <path d="M95.4706355,206.584682 L3.09888963,206.584682 C1.59174582,206.584682 0.369792642,205.362522 0.369792642,203.855123 C0.369792642,202.347723 1.59174582,201.125563 3.09888963,201.125563 L95.4706355,201.125563 C96.9777793,201.125563 98.1997324,202.347723 98.1997324,203.855123 C98.1997324,205.362522 96.9777793,206.584682 95.4706355,206.584682" id="Fill-9"></path>
                <path d="M127.258475,129.830145 C126.559826,129.830145 125.861177,129.56333 125.328321,129.030384 L83.4250836,87.1200409 C82.3593712,86.0541478 82.3593712,84.3263365 83.4250836,83.259761 C84.490796,82.1945503 86.2189967,82.1945503 87.284709,83.259761 L129.187946,125.170104 C130.253659,126.236679 130.253659,127.964491 129.187946,129.030384 C128.65509,129.56333 127.956441,129.830145 127.258475,129.830145" id="Fill-10"></path>
                <path d="M204,98.0369151 C202.492856,98.0369151 201.270903,96.8147547 201.270903,95.3073553 L201.270903,2.91994654 C201.270903,1.41254717 202.492856,0.190386792 204,0.190386792 C205.507144,0.190386792 206.729097,1.41254717 206.729097,2.91994654 L206.729097,95.3073553 C206.729097,96.8147547 205.507144,98.0369151 204,98.0369151" id="Fill-11"></path>
                <path d="M322.644763,325.250245 C321.946796,325.250245 321.248147,324.983431 320.715291,324.450484 L278.812054,282.540142 C277.746341,281.474248 277.746341,279.745755 278.812054,278.680544 C279.877084,277.613969 281.606649,277.613969 282.671679,278.680544 L324.574916,320.590887 C325.640629,321.656097 325.640629,323.384591 324.574916,324.450484 C324.04206,324.983431 323.343411,325.250245 322.644763,325.250245" id="Fill-12"></path>
                <path d="M404.90111,206.584682 L312.529365,206.584682 C311.022221,206.584682 309.800268,205.362522 309.800268,203.855123 C309.800268,202.347723 311.022221,201.125563 312.529365,201.125563 L404.90111,201.125563 C406.408254,201.125563 407.630207,202.347723 407.630207,203.855123 C407.630207,205.362522 406.408254,206.584682 404.90111,206.584682" id="Fill-13"></path>
                <path d="M280.741525,129.830145 C280.043559,129.830145 279.34491,129.56333 278.812054,129.030384 C277.746341,127.964491 277.746341,126.236679 278.812054,125.170104 L320.715291,83.259761 C321.780321,82.1945503 323.509886,82.1945503 324.574916,83.259761 C325.640629,84.3263365 325.640629,86.0541478 324.574916,87.1200409 L282.671679,129.030384 C282.138823,129.56333 281.440174,129.830145 280.741525,129.830145" id="Fill-14"></path>
            </g>
        </g>
    </g>
</svg>
